<?xml version="1.0" standalone="no"?>
<!DOCTYPE svg PUBLIC "-//W3C//DTD SVG 20010904//EN"
 "http://www.w3.org/TR/2001/REC-SVG-20010904/DTD/svg10.dtd">
<svg version="1.0" xmlns="http://www.w3.org/2000/svg"
 width="512.000000pt" height="512.000000pt" viewBox="0 0 512.000000 512.000000"
 preserveAspectRatio="xMidYMid meet">

<g transform="translate(0.000000,512.000000) scale(0.100000,-0.100000)"
fill="#fff"  stroke="none">
<path d="M2375 5054 c-16 -2 -73 -9 -125 -15 -435 -49 -869 -231 -1240 -518
-110 -85 -327 -302 -412 -412 -277 -358 -445 -751 -515 -1206 -23 -150 -23
-536 0 -686 112 -727 493 -1334 1087 -1732 330 -221 669 -348 1085 -407 135
-19 503 -16 650 5 373 55 731 192 1035 395 617 413 996 1025 1102 1777 17 117
17 493 0 610 -91 647 -391 1200 -867 1602 -357 302 -802 502 -1265 568 -108
16 -467 29 -535 19z m530 -1199 c425 -74 689 -429 595 -801 -38 -150 -127
-285 -249 -377 l-62 -46 43 -22 c106 -54 226 -176 283 -289 99 -196 99 -435
-2 -640 -103 -210 -329 -370 -588 -415 -72 -12 -201 -15 -741 -15 l-654 0 0
1310 0 1310 644 0 c531 0 659 -3 731 -15z"/>
<path d="M2222 3083 l3 -228 220 0 c217 0 221 0 270 26 30 15 62 42 80 68 28
40 30 49 30 131 0 82 -2 91 -30 131 -18 26 -50 53 -80 68 -48 25 -56 26 -272
29 l-223 3 2 -228z"/>
<path d="M2220 2080 l0 -240 218 0 c246 0 297 9 359 63 49 43 75 105 75 177 0
72 -26 134 -75 177 -62 54 -113 63 -359 63 l-218 0 0 -240z"/>
</g>
</svg>
